# xmcd CD database file
#
# Track frame offsets:
#	150
#	14464
#	37841
#	70047
#	87935
#	124342
#	148205
#	164743
#	197893
#	212656
#	233710
#	244421
#	301416
#
# Disc length: 4226 seconds
#
# Revision: 0
# Processed by: cddbd v1.5.2PL0 Copyright (c) Steve Scherf et al.
# Submitted via: CDex 1.70beta2
#
DISCID=bc10800d
DTITLE=HR Big Band - Tribal Dances and Cottacatya!
DYEAR=2003
DGENRE=Jazz
TTITLE0=Movement I Ouvertüre
TTITLE1=Movement II Allemande, Zwiefacher
TTITLE2=Movement III Courante, TripBob
TTITLE3=Movement IV Bouree, Fonk
TTITLE4=Movement V Sarabande, Tango
TTITLE5=Movement VI Gigue, Afro
TTITLE6=Part I Cat In
TTITLE7=Part II A Cat's Cotta Do What's A Cat's Cotta Do
TTITLE8=Part III Cat Around
TTITLE9=Part IV CottaCataya In My Live
TTITLE10=Part V Cat Real
TTITLE11=Part VI Cottago
TTITLE12=Part VII Cat Out
EXTD=YEAR: 2003
EXTT0=
EXTT1=
EXTT2=
EXTT3=
EXTT4=
EXTT5=
EXTT6=
EXTT7=
EXTT8=
EXTT9=
EXTT10=
EXTT11=
EXTT12=
PLAYORDER=
